<svg width="39" height="39" viewBox="0 0 39 39" fill="none" xmlns="http://www.w3.org/2000/svg">
<g clip-path="url(#clip0_76_2)">
<path d="M16.1752 25.462L15.9464 24.7801H15.2271H6.9293H6.19477L5.97508 25.481L4.40258 30.498H1.61429L8.48666 10.2926L8.48673 10.2927L8.49075 10.2803C8.49553 10.2657 8.50035 10.2509 8.50523 10.2359C8.5723 10.0304 8.64884 9.79578 8.72463 9.49803L8.73207 9.46879L8.73773 9.43916C8.797 9.12919 8.84003 8.81646 8.86671 8.50225H10.9478L10.1 11.4226C10.0538 11.5817 10.0077 11.7403 9.96187 11.8983C9.04745 15.0487 8.19668 17.9797 7.26833 20.9391L6.86074 22.2384H8.22248H13.8982H15.233L14.8579 20.9574C14.4978 19.7278 14.126 18.523 13.7568 17.3265C13.1525 15.3683 12.5549 13.432 12.0268 11.4445L11.2449 8.50225H13.3745L21.0253 30.498H17.865L16.1752 25.462Z" fill="white" stroke="white" stroke-width="2"/>
<path d="M27.2864 21.7771H26.1672L26.2927 22.8893C26.4846 24.5899 27.264 25.9077 28.4131 26.7779C29.545 27.635 30.9702 28.0104 32.4062 27.977C33.5017 27.954 34.6774 27.815 35.807 27.4923V29.7494C34.4357 30.3298 32.8615 30.5244 31.3036 30.4976L31.295 30.4975H31.2864C28.8958 30.4975 26.9305 29.6036 25.5556 28.0953C24.174 26.5798 23.33 24.3771 23.3307 21.6746L23.3307 21.6718C23.3176 16.4921 26.4106 12.5029 30.8616 12.5029H30.8754L30.8893 12.5025C34.5767 12.4003 37.3189 15.5471 37.3307 19.8507C37.3307 20.4768 37.3057 21.1028 37.2528 21.7233C35.6959 21.7259 34.1367 21.7379 32.5801 21.7499L32.5744 21.75C30.8087 21.7636 29.0463 21.7771 27.2864 21.7771ZM26.294 19.1172L26.1549 20.2401H27.2864C27.8625 20.2401 28.4507 20.2469 29.0458 20.2537C30.4232 20.2696 31.838 20.2859 33.2278 20.2196L33.2585 20.2181L33.289 20.2148C33.2918 20.2145 33.2948 20.2142 33.2978 20.2138C33.4382 20.1985 33.786 20.1607 34.0952 19.9582C34.5256 19.6763 34.6935 19.2281 34.6935 18.8011V18.7894L34.6933 18.7776C34.6419 16.5928 32.9171 14.6338 30.6973 14.694C29.4051 14.6252 28.3448 15.1866 27.601 16.0352C26.865 16.8751 26.4332 17.993 26.294 19.1172Z" fill="white" stroke="white" stroke-width="2"/>
</g>
<defs>
<clipPath id="clip0_76_2">
<rect width="38" height="38" fill="white" transform="translate(0.330688 0.5)"/>
</clipPath>
</defs>
</svg>
