<svg width="41" height="41" viewBox="0 0 41 41" fill="none" xmlns="http://www.w3.org/2000/svg">
<path d="M20.7191 27.2931H13.1756L11.6408 32.1961C11.5982 32.3783 11.431 32.5073 11.2489 32.4982H7.42817C7.21028 32.4982 7.13409 32.3752 7.19959 32.1288L13.7307 11.7836C13.7961 11.5821 13.8615 11.3527 13.9267 11.0952C14.0122 10.647 14.0559 10.1917 14.0574 9.73519C14.0386 9.60027 14.1569 9.4811 14.2859 9.5H19.4783C19.6304 9.5 19.7173 9.55599 19.7394 9.6679L27.1524 32.1625C27.2176 32.3865 27.1524 32.4984 26.9565 32.4982H22.7111C22.5623 32.5153 22.4201 32.413 22.3846 32.2632L20.7191 27.2931ZM14.3512 23.0618H19.5109C18.6632 20.1573 17.7065 15.4269 16.9311 12.5C16.0945 15.432 15.1817 20.2162 14.3512 23.0618Z" fill="white"/>
<path d="M31.6287 13.8113C31.2999 13.8252 30.9722 13.7657 30.6666 13.6367C30.3611 13.5077 30.0849 13.3119 29.856 13.0624C29.6277 12.802 29.4503 12.4966 29.3341 12.1635C29.218 11.8306 29.1653 11.4767 29.179 11.1221C29.1673 10.771 29.2259 10.4213 29.3508 10.0957C29.4759 9.77015 29.6645 9.4761 29.9043 9.23274C30.1418 8.99192 30.4222 8.80324 30.7294 8.67762C31.0364 8.55199 31.3639 8.49193 31.6931 8.50087C32.4668 8.50087 33.0737 8.74484 33.5142 9.23274C33.7366 9.48631 33.9094 9.7837 34.0228 10.1079C34.1361 10.432 34.1879 10.7768 34.1748 11.1221C34.1884 11.4779 34.134 11.8333 34.0149 12.1665C33.896 12.4998 33.7146 12.8044 33.4819 13.0624C33.2388 13.3156 32.9485 13.5128 32.6296 13.6418C32.3106 13.7706 31.9698 13.8284 31.6287 13.8113ZM29.4047 32.1595V15.8879C29.4047 15.6836 29.4903 15.5815 29.6626 15.5815H33.6271C33.7987 15.5815 33.8847 15.6836 33.8849 15.8879V32.1595C33.8849 32.3867 33.7989 32.5002 33.6271 32.5H29.6948C29.5014 32.5 29.4047 32.3866 29.4047 32.1595Z" fill="white"/>
</svg>
