 <svg width="83" height="83" viewBox="0 0 83 83" fill="none" xmlns="http://www.w3.org/2000/svg">
              <path fillRule="evenodd" clipRule="evenodd" d="M50.3957 28.1747H67.344V23.319H50.3957V28.1747ZM54.4107 38.7696C53.3308 39.8685 52.6497 41.3571 52.3713 43.2355H65.5528C65.4136 41.2309 64.7288 39.7162 63.5171 38.6731C62.2904 37.6373 60.7814 37.1213 58.9752 37.1213C57.0185 37.1213 55.4907 37.6708 54.4107 38.7696ZM65.8501 32.2508C67.8934 33.1492 69.5754 34.5747 70.9 36.52C72.1079 38.235 72.883 40.2248 73.2367 42.4856C73.4437 43.8072 73.5266 45.7227 73.4927 48.2137H52.1831C52.3111 51.1056 53.3195 53.1362 55.2461 54.2981C56.4126 55.022 57.8162 55.3858 59.4644 55.3858C61.1991 55.3858 62.6178 54.9441 63.7052 54.0643C64.3036 53.5854 64.8304 52.9246 65.2819 52.0782H73.09C72.8831 53.7858 71.9348 55.5269 70.2565 57.294C67.6375 60.0968 63.9686 61.5 59.2537 61.5C55.359 61.5 51.9235 60.3195 48.9545 57.951C45.9705 55.5863 44.4879 51.7329 44.4879 46.4021C44.4879 41.4016 45.8313 37.5668 48.5142 34.8977C51.2048 32.236 54.6854 30.8958 58.9714 30.8958C61.519 30.8958 63.8106 31.3487 65.8501 32.2508ZM17.3834 43.3394V53.745H26.9864C28.7023 53.745 30.042 53.5148 30.994 53.0582C32.7287 52.2044 33.5942 50.5858 33.5942 48.1877C33.5942 46.1534 32.7588 44.7612 31.0767 44.0002C30.136 43.577 28.8152 43.3543 27.1219 43.3394H17.3834ZM17.3834 28.2749V36.8838H27.0015C28.7136 36.8838 30.1097 36.5608 31.1859 35.9149C32.2546 35.2689 32.7926 34.1255 32.7926 32.4921C32.7926 30.6694 32.0852 29.4703 30.6703 28.8838C29.4436 28.4791 27.8858 28.2749 25.993 28.2749H17.3834ZM38.8622 25.6578C40.0701 27.3172 40.676 29.2995 40.676 31.6123C40.676 33.9919 40.0702 35.9111 38.8473 37.3589C38.1624 38.1682 37.1577 38.9107 35.8293 39.5789C37.8463 40.3065 39.3665 41.4536 40.4013 43.0239C41.4248 44.5905 41.9404 46.4986 41.9404 48.7408C41.9404 51.0536 41.3533 53.1288 40.1755 54.9626C39.4305 56.1766 38.4973 57.2012 37.3759 58.0327C36.1153 58.9868 34.6289 59.6364 32.9093 59.9928C31.1896 60.3455 29.3307 60.5162 27.3213 60.5162H9.5V21.5H28.612C33.4361 21.5705 36.8491 22.9552 38.8622 25.6578Z" fill="white" fillOpacity="0.8"/>
              <rect x="0.5" y="0.5" width="82" height="82" rx="11.5" stroke="white" strokeOpacity="0.8"/>
            </svg>