<svg width="40" height="41" viewBox="0 0 40 41" fill="none" xmlns="http://www.w3.org/2000/svg">
<path d="M24.9637 17.2297C23.1571 17.2297 21.693 18.6939 21.693 20.5004C21.693 22.307 23.1571 23.7711 24.9637 23.7711H25.0694C26.876 23.7711 28.3401 22.307 28.3401 20.5004C28.3401 18.6939 26.876 17.2297 25.0694 17.2297H24.9637ZM25.0694 25.3644H24.9637C22.2772 25.3644 20.0997 23.1869 20.0997 20.5004C20.0997 17.814 22.2772 15.6364 24.9637 15.6364H25.0694C27.7558 15.6364 29.9334 17.814 29.9334 20.5004C29.9334 23.1869 27.7558 25.3644 25.0694 25.3644ZM16.7232 25.3644H16.7223C14.9158 25.3644 13.4516 26.8286 13.4516 28.6351C13.4516 30.4417 14.9158 31.9058 16.7223 31.9058C16.7319 31.9058 16.7423 31.9058 16.7518 31.9058H16.7501C16.7527 31.9058 16.7561 31.9058 16.7596 31.9058C18.5982 31.9058 20.091 30.42 20.1005 28.5831V25.3644H16.7232ZM16.7492 33.5C16.7379 33.5 16.7241 33.5 16.7102 33.5C14.0238 33.5 11.8462 31.3224 11.8462 28.636C11.8462 25.9496 14.0238 23.772 16.7102 23.772C16.7145 23.772 16.7189 23.772 16.7232 23.772H21.693V28.5831C21.6826 31.3008 19.4764 33.5 16.7579 33.5C16.7553 33.5 16.7527 33.5 16.7501 33.5H16.7492ZM16.7232 17.2297C14.9166 17.2297 13.4525 18.6939 13.4525 20.5004C13.4525 22.307 14.9166 23.7711 16.7232 23.7711H20.0997V17.2306L16.7232 17.2297ZM21.6921 25.3644H16.7232C14.0368 25.3644 11.8592 23.1869 11.8592 20.5004C11.8592 17.814 14.0368 15.6364 16.7232 15.6364H21.693V25.3644H21.6921ZM16.7232 9.09504C14.9166 9.09504 13.4525 10.5592 13.4525 12.3657C13.4525 14.1723 14.9166 15.6364 16.7232 15.6364H20.0997V9.09417L16.7232 9.09504ZM21.6921 17.2297H16.7232C14.0368 17.2297 11.8583 15.0522 11.8583 12.3649C11.8583 9.67757 14.0359 7.5 16.7232 7.5H21.693V17.2289L21.6921 17.2297ZM21.6921 15.6364H25.0685C26.8716 15.6321 28.3314 14.1697 28.3314 12.3657C28.3314 10.5618 26.8716 9.09937 25.0685 9.09504H21.6921V15.6364ZM25.0694 17.2297H20.0997V7.50087H25.0694C27.7558 7.50087 29.9343 9.67844 29.9343 12.3657C29.9343 15.053 27.7567 17.2306 25.0694 17.2306V17.2297Z" fill="white"/>
</svg>
