<svg width="35" height="45" viewBox="0 0 35 45" fill="none" xmlns="http://www.w3.org/2000/svg">
<path d="M10.2317 11.6983V34.5H6.17676V11.6983H10.2317ZM28.1986 10.5V29.5734C28.1986 31.2376 28.2645 33.0351 28.3306 34.1338H24.7043L24.5396 31.5707H24.4737C23.5178 33.3682 21.5725 34.5 19.2318 34.5C15.4076 34.5 12.3747 31.2047 12.3747 26.2118C12.3417 20.786 15.7044 17.5572 19.5617 17.5572C21.7705 17.5572 23.353 18.4892 24.0783 19.6876H24.1442V10.5H28.1986ZM24.1438 24.6803C24.1438 24.3474 24.1106 23.9479 24.0448 23.6151C23.6822 22.0174 22.3965 20.7192 20.5502 20.7192C17.9457 20.7192 16.4954 23.0492 16.4954 26.0784C16.4954 29.0408 17.9457 31.2045 20.5174 31.2045C22.1657 31.2045 23.6164 30.0727 24.0119 28.3086C24.1109 27.9426 24.144 27.5431 24.144 27.1104L24.1438 24.6803Z" fill="white"/>
</svg>
