<svg  width="83" height="83" viewBox="0 0 83 83" fill="none" xmlns="http://www.w3.org/2000/svg">
              <path fillRule="evenodd" clipRule="evenodd" d="M41.5001 21C35.9325 21 35.2344 21.0236 33.0479 21.1234C30.8659 21.2229 29.3757 21.5695 28.0717 22.0763C26.7237 22.6001 25.5804 23.301 24.4407 24.4407C23.301 25.5804 22.6001 26.7237 22.0763 28.0717C21.5695 29.3757 21.2229 30.8659 21.1234 33.0479C21.0236 35.2344 21 35.9325 21 41.5C21 47.0675 21.0236 47.7656 21.1234 49.9521C21.2229 52.1341 21.5695 53.6243 22.0763 54.9283C22.6001 56.2763 23.301 57.4196 24.4407 58.5593C25.5804 59.699 26.7237 60.3999 28.0717 60.9238C29.3757 61.4305 30.8659 61.7771 33.0479 61.8766C35.2344 61.9764 35.9325 62 41.5001 62C47.0675 62 47.7656 61.9764 49.9521 61.8766C52.1341 61.7771 53.6243 61.4305 54.9283 60.9238C56.2763 60.3999 57.4196 59.699 58.5593 58.5593C59.699 57.4196 60.3999 56.2763 60.9238 54.9283C61.4305 53.6243 61.7771 52.1341 61.8767 49.9521C61.9764 47.7656 62 47.0675 62 41.5C62 35.9325 61.9764 35.2344 61.8767 33.0479C61.7771 30.8659 61.4305 29.3757 60.9238 28.0717C60.3999 26.7237 59.699 25.5804 58.5593 24.4407C57.4196 23.301 56.2763 22.6001 54.9283 22.0763C53.6243 21.5695 52.1341 21.2229 49.9521 21.1234C47.7656 21.0236 47.0675 21 41.5001 21ZM41.5001 24.6937C46.9737 24.6937 47.6221 24.7146 49.7838 24.8132C51.7825 24.9044 52.868 25.2383 53.5903 25.5191C54.5472 25.891 55.2301 26.3352 55.9474 27.0526C56.6648 27.7699 57.109 28.4528 57.4809 29.4097C57.7616 30.1321 58.0956 31.2175 58.1867 33.2162C58.2854 35.3779 58.3063 36.0263 58.3063 41.5C58.3063 46.9737 58.2854 47.6221 58.1867 49.7838C58.0956 51.7825 57.7616 52.8679 57.4809 53.5903C57.109 54.5472 56.6648 55.2301 55.9474 55.9474C55.2301 56.6648 54.5472 57.109 53.5903 57.4809C52.868 57.7617 51.7825 58.0956 49.7838 58.1868C47.6224 58.2854 46.9741 58.3063 41.5001 58.3063C36.0259 58.3063 35.3776 58.2854 33.2162 58.1868C31.2175 58.0956 30.1321 57.7617 29.4097 57.4809C28.4528 57.109 27.7699 56.6648 27.0526 55.9474C26.3353 55.2301 25.891 54.5472 25.5191 53.5903C25.2383 52.8679 24.9044 51.7825 24.8132 49.7838C24.7146 47.6221 24.6937 46.9737 24.6937 41.5C24.6937 36.0263 24.7146 35.3779 24.8132 33.2162C24.9044 31.2175 25.2383 30.1321 25.5191 29.4097C25.891 28.4528 26.3352 27.7699 27.0526 27.0526C27.7699 26.3352 28.4528 25.891 29.4097 25.5191C30.1321 25.2383 31.2175 24.9044 33.2162 24.8132C35.3779 24.7146 36.0263 24.6937 41.5001 24.6937ZM41.5001 30.973C35.6861 30.973 30.973 35.686 30.973 41.5C30.973 47.3139 35.6861 52.027 41.5001 52.027C47.314 52.027 52.027 47.3139 52.027 41.5C52.027 35.686 47.314 30.973 41.5001 30.973ZM41.5001 48.3333C37.726 48.3333 34.6667 45.274 34.6667 41.5C34.6667 37.726 37.726 34.6667 41.5001 34.6667C45.274 34.6667 48.3333 37.726 48.3333 41.5C48.3333 45.274 45.274 48.3333 41.5001 48.3333ZM54.903 30.5571C54.903 31.9157 53.8016 33.017 52.4429 33.017C51.0844 33.017 49.983 31.9157 49.983 30.5571C49.983 29.1984 51.0844 28.097 52.4429 28.097C53.8016 28.097 54.903 29.1984 54.903 30.5571Z" fill="white" fillOpacity="0.8"/>
              <rect x="0.5" y="0.5" width="82" height="82" rx="11.5" stroke="white" strokeOpacity="0.8"/>
</svg>