  <svg  width="83" height="83" viewBox="0 0 83 83" fill="none" xmlns="http://www.w3.org/2000/svg">
              <g clipPath="url(#clip0_87_381)">
                <path fillRule="evenodd" clipRule="evenodd" d="M61.5 59.6817H52.6594V46.8985C52.6594 43.5525 51.2766 41.2682 48.2357 41.2682C45.9097 41.2682 44.6162 42.8097 44.0141 44.2953C43.7883 44.8285 43.8236 45.5712 43.8236 46.314V59.6817H35.0654C35.0654 59.6817 35.1783 37.0374 35.0654 34.9791H43.8236V38.856C44.341 37.1608 47.1397 34.7416 51.6058 34.7416C57.1467 34.7416 61.5 38.2948 61.5 45.9461V59.6817ZM26.2084 31.8892H26.1519C23.3297 31.8892 21.5 30.0008 21.5 27.6071C21.5 25.1669 23.3838 23.3181 26.2625 23.3181C29.1388 23.3181 30.9073 25.1623 30.9638 27.6002C30.9638 29.9938 29.1387 31.8892 26.2084 31.8892ZM22.5089 34.9791H30.3053V59.6817H22.5089V34.9791Z" fill="white" fillOpacity="0.8"/>
              </g>
              <rect x="0.5" y="0.5" width="82" height="82" rx="11.5" stroke="white" strokeOpacity="0.8"/>
              <defs>
                <clipPath id="clip0_87_381">
                  <rect width="40" height="40" fill="white" transform="translate(21.5 21.5)"/>
                </clipPath>
              </defs>
</svg>