<svg width="24" height="24" viewBox="0 0 24 24" fill="none" xmlns="http://www.w3.org/2000/svg">
<g clip-path="url(#clip0_1221_26)">
<path d="M12 23.1429C18.1541 23.1429 23.1429 18.1541 23.1429 12C23.1429 5.84598 18.1541 0.857147 12 0.857147C5.84598 0.857147 0.857147 5.84598 0.857147 12C0.857147 18.1541 5.84598 23.1429 12 23.1429Z" stroke="black" stroke-width="1.71429" stroke-linecap="round" stroke-linejoin="round"/>
<path d="M16.217 7.75236C13.8887 7.75236 12.0013 9.63979 12.0013 11.968C12.0013 14.2963 13.8887 16.1837 16.217 16.1837C16.6461 16.1837 16.9738 16.6996 16.6592 16.9914C15.4369 18.1253 13.8001 18.8186 12.0013 18.8186C8.21788 18.8186 5.15082 15.7515 5.15082 11.968C5.15082 8.18463 8.21788 5.11755 12.0013 5.11755C13.8001 5.11755 15.4369 5.81081 16.6592 6.94471C16.9738 7.23653 16.6461 7.75236 16.217 7.75236Z" fill="black"/>
</g>
<defs>
<clipPath id="clip0_1221_26">
<rect width="24" height="24" fill="white"/>
</clipPath>
</defs>
</svg>
