<svg width="16" height="16" viewBox="0 0 16 16" fill="none" xmlns="http://www.w3.org/2000/svg">
<path d="M8 7.5C7.73478 7.5 7.48043 7.39464 7.29289 7.20711C7.10536 7.01957 7 6.76522 7 6.5V4.5C7 4.23478 7.10536 3.98043 7.29289 3.79289C7.48043 3.60536 7.73478 3.5 8 3.5C8.26522 3.5 8.51957 3.60536 8.70711 3.79289C8.89464 3.98043 9 4.23478 9 4.5V6.5C9 6.76522 8.89464 7.01957 8.70711 7.20711C8.51957 7.39464 8.26522 7.5 8 7.5Z" stroke="black" stroke-linecap="round" stroke-linejoin="round"/>
<path d="M13 5.5C13 4.17392 12.4732 2.90215 11.5355 1.96447C10.5979 1.02678 9.32608 0.5 8 0.5C6.67392 0.5 5.40215 1.02678 4.46447 1.96447C3.52678 2.90215 3 4.17392 3 5.5V10.5C3 11.8261 3.52678 13.0979 4.46447 14.0355C5.40215 14.9732 6.67392 15.5 8 15.5C9.32608 15.5 10.5979 14.9732 11.5355 14.0355C12.4732 13.0979 13 11.8261 13 10.5V5.5Z" stroke="black" stroke-linecap="round" stroke-linejoin="round"/>
</svg>
