<svg width="41" height="41" viewBox="0 0 41 41" fill="none" xmlns="http://www.w3.org/2000/svg">
<path d="M5.17688 32.2054V8.88527C5.17688 8.72663 5.2364 8.63598 5.37529 8.63598C7.42568 8.63598 9.47512 8.5 11.5261 8.5C14.854 8.5 18.4575 9.76724 19.7206 13.6445C20.0182 14.5964 20.1769 15.5709 20.1769 16.5907C20.1769 18.5397 19.7801 20.1487 18.9864 21.4179C16.7695 24.963 12.9269 24.908 9.48241 24.908V32.1826C9.50937 32.3981 9.34455 32.5 9.18483 32.5H5.41498C5.25625 32.5 5.17688 32.4094 5.17688 32.2054ZM9.50225 13.01V20.6246C10.8681 20.7361 12.2971 20.7482 13.6094 20.262C15.0581 19.7967 15.8515 18.4002 15.8515 16.7267C15.8919 15.3007 15.1941 13.9324 14.0063 13.4179C12.7099 12.8175 10.9018 12.7816 9.50225 13.01Z" fill="white"/>
<path d="M22.5087 15.7628H27.5503C27.8282 15.7646 28.0779 15.9043 28.1513 16.0996C28.5208 16.6969 28.5664 17.4173 28.5676 18.0621C29.4323 17.3291 30.4747 16.7184 31.6433 16.2603C32.8966 15.7441 34.3173 15.4823 35.7569 15.5027C35.996 15.4777 36.2074 15.6318 36.1732 15.8057V19.8807C36.1732 20.0382 36.0186 20.1165 35.7107 20.1165C33.5768 20.0093 30.2547 20.3764 28.7041 21.5983V32.1939C28.7041 32.396 28.5809 32.4971 28.3342 32.4971H22.9251C22.6594 32.5248 22.425 32.3507 22.4625 32.1602V20.6553C22.4625 19.1138 22.5084 17.5257 22.1851 15.9986C22.1353 15.858 22.3199 15.7274 22.5087 15.7628Z" fill="white"/>
</svg>
