<svg width="41" height="41" viewBox="0 0 41 41" fill="none" xmlns="http://www.w3.org/2000/svg">
<path d="M5.17688 32.2176L5.17688 8.86918C5.17688 8.71726 5.24434 8.63032 5.40176 8.63032C7.72553 8.63032 10.0483 8.5 12.3726 8.5C16.1444 8.5 20.2282 9.71445 21.6598 13.43C21.9971 14.3423 22.1769 15.2761 22.1769 16.2535C22.1769 18.1214 21.7272 19.6633 20.8277 20.8796C18.3151 24.277 13.9602 24.2242 10.0566 24.2242L10.0566 32.196C10.087 32.4023 9.90026 32.5 9.71927 32.5H5.44672C5.26683 32.5 5.17688 32.4131 5.17688 32.2176ZM10.0789 12.822V20.1194C11.6269 20.2262 13.2465 20.2378 14.7337 19.772C16.3757 19.3259 17.2748 17.9876 17.2748 16.3839C17.3203 15.0173 16.5297 13.7061 15.1836 13.213C13.7143 12.6376 11.665 12.6031 10.0789 12.822Z" fill="white"/>
<path d="M34.8797 18.6455C34.2551 18.2905 33.5898 18.0309 32.9021 17.8738C32.0184 17.6496 28.5332 16.8645 28.5317 18.8292C28.5627 19.926 30.1778 20.4633 30.8914 20.7767C33.3966 21.7039 36.2315 23.3613 36.1757 26.6931C36.2523 30.8406 32.5247 32.4988 29.3294 32.4991C27.666 32.5176 25.9331 32.2399 24.4107 31.4701C24.2653 31.3871 24.1719 31.2099 24.1781 31.0291V27.0604C24.1616 26.9013 24.3201 26.7623 24.444 26.8767C25.9356 27.8492 27.7035 28.3214 29.4292 28.3466C30.1909 28.3466 31.7005 28.2671 31.6892 27.0604C31.6892 25.9026 29.8832 25.3702 29.1632 25.0761C28.1197 24.6746 27.1302 24.1182 26.222 23.4225C24.9527 22.4465 24.1565 20.8816 24.1781 19.16C24.1706 15.2546 27.6019 13.5017 30.6921 13.5009C32.1366 13.488 33.688 13.6034 35.0327 14.2359C35.2261 14.2971 35.2661 14.5168 35.2654 14.7135V18.425C35.2776 18.6554 35.0403 18.7338 34.8797 18.6455Z" fill="white"/>
</svg>
