<svg width="24" height="24" viewBox="0 0 24 24" fill="none" xmlns="http://www.w3.org/2000/svg">
<g clip-path="url(#clip0_1015_260)">
<path d="M11.9999 15.9994C14.2087 15.9994 15.9993 14.2088 15.9993 12C15.9993 9.79115 14.2087 8.00055 11.9999 8.00055C9.79109 8.00055 8.00049 9.79115 8.00049 12C8.00049 14.2088 9.79109 15.9994 11.9999 15.9994Z" fill="black" stroke="black" stroke-width="1.71429" stroke-linecap="round" stroke-linejoin="round"/>
<path d="M12 4.5V5.49999" stroke="black" stroke-width="1.71429" stroke-linecap="round" stroke-linejoin="round"/>
<path d="M17.3032 6.69666L16.5962 7.40376" stroke="black" stroke-width="1.71429" stroke-linecap="round" stroke-linejoin="round"/>
<path d="M19.4999 12H18.5" stroke="black" stroke-width="1.71429" stroke-linecap="round" stroke-linejoin="round"/>
<path d="M17.3032 17.3033L16.5962 16.5962" stroke="black" stroke-width="1.71429" stroke-linecap="round" stroke-linejoin="round"/>
<path d="M12 19.4999V18.5" stroke="black" stroke-width="1.71429" stroke-linecap="round" stroke-linejoin="round"/>
<path d="M6.69678 17.3033L7.40389 16.5962" stroke="black" stroke-width="1.71429" stroke-linecap="round" stroke-linejoin="round"/>
<path d="M4.5 12H5.49999" stroke="black" stroke-width="1.71429" stroke-linecap="round" stroke-linejoin="round"/>
<path d="M6.69678 6.69666L7.40389 7.40376" stroke="black" stroke-width="1.71429" stroke-linecap="round" stroke-linejoin="round"/>
<path d="M12 23.1428C18.1541 23.1428 23.1429 18.1541 23.1429 12C23.1429 5.84595 18.1541 0.857117 12 0.857117C5.84601 0.857117 0.857178 5.84595 0.857178 12C0.857178 18.1541 5.84601 23.1428 12 23.1428Z" stroke="black" stroke-width="1.71429" stroke-linecap="round" stroke-linejoin="round"/>
</g>
<defs>
<clipPath id="clip0_1015_260">
<rect width="24" height="24" fill="black"/>
</clipPath>
</defs>
</svg>
