<svg width="34" height="23" viewBox="0 0 34 23" fill="none" xmlns="http://www.w3.org/2000/svg">
<path d="M24.6289 6.73381C24.6289 6.73381 21.9394 15.1828 21.7187 15.8678C21.6426 15.165 19.6635 0 19.6635 0C15.0813 0 12.6303 3.26795 11.3338 6.71605C11.3338 6.71605 8.06586 15.1853 7.78169 15.9034C7.76139 15.2462 7.27424 6.81754 7.27424 6.81754C6.99514 2.59305 3.12841 0.0228345 0 0.0228345L3.78555 23C8.58853 22.9797 11.179 19.732 12.5339 16.2839C12.5339 16.2839 15.4238 8.8118 15.5431 8.47182C15.5634 8.79151 17.616 23 17.616 23C22.4367 23 25.0298 19.9553 26.4227 16.6239L33.1768 0.0253742C28.4373 0.0202997 25.9254 3.27049 24.6314 6.73634L24.6289 6.73381Z" fill="white"/>
</svg>
