<svg width="41" height="41" viewBox="0 0 41 41" fill="none" xmlns="http://www.w3.org/2000/svg">
<path d="M22.367 9.59673L16.2893 20.702L22.7916 32.2096C22.9268 32.4474 22.7916 32.5 22.5958 32.5H17.9559C17.629 32.5 17.4002 32.4886 17.2696 32.274C16.8335 31.4375 16.3979 29.5873 15.9624 28.7615C15.5265 27.936 15.0636 27.0941 14.5739 26.2358C14.0836 25.3782 13.599 24.5096 13.1197 23.6298C12.6838 24.4879 12.1989 25.3458 11.731 26.2037C11.2623 27.0618 10.7994 27.9144 10.3423 28.7615C9.88484 29.6091 9.41649 31.4699 8.93726 32.3061C8.84995 32.4992 8.69725 32.519 8.47971 32.519H4.00321C3.82732 32.519 3.8061 32.3921 3.9052 32.2418L10.2116 21.0236L4.06851 9.5645C3.95693 9.41853 4.05296 9.26304 4.23193 9.2749H8.83914C9.03864 9.26421 9.21495 9.33636 9.3293 9.5002C10.2116 12.5 10.1571 12.444 10.6363 13.3018C11.1152 14.1599 11.6 15.0073 12.0904 15.8435C12.5806 16.68 13.0653 17.5273 13.4791 18.3854C13.9146 17.5061 14.3557 16.6481 14.8025 15.8114C15.2488 14.9749 15.7062 14.133 16.1748 13.2857C16.6431 12.4387 17.0951 10.3691 17.5309 9.53243C17.5888 9.34889 17.7273 9.25586 17.923 9.2749H22.2035C22.367 9.2749 22.4345 9.48917 22.367 9.59673Z" fill="white"/>
<path d="M30.7209 32.4988C28.0602 32.5436 25.2732 31.3619 23.8722 28.744C23.1883 27.4871 22.8463 25.913 22.8465 24.0214C22.8351 22.4895 23.1889 20.9814 23.8722 19.6492C25.6354 16.2498 29.1874 14.9761 32.5613 15.3104V8.73537C32.5613 8.57995 32.6217 8.50175 32.7424 8.50175H36.5439C36.6478 8.48533 36.7397 8.58702 36.7249 8.70197V28.427C36.7249 29.2407 36.7997 30.0517 36.8457 30.8633C36.8531 31.0019 36.7787 31.1391 36.6645 31.1972C34.7863 32.0638 32.7539 32.4887 30.7209 32.4988ZM32.5613 28.3601V19.2486C29.8057 18.423 27.1303 20.6867 27.1306 23.8211C27.0653 27.0616 29.6552 29.3005 32.5613 28.3601Z" fill="white"/>
</svg>
